<svg id="visual" viewBox="0 0 900 600" width="900" height="600" xmlns="http://www.w3.org/2000/svg" xmlns:xlink="http://www.w3.org/1999/xlink" version="1.1"><path d="M0 428L21.5 423.5C43 419 86 410 128.8 404.3C171.7 398.7 214.3 396.3 257.2 394.8C300 393.3 343 392.7 385.8 400.8C428.7 409 471.3 426 514.2 430.7C557 435.3 600 427.7 642.8 421.5C685.7 415.3 728.3 410.7 771.2 410C814 409.3 857 412.7 878.5 414.3L900 416L900 601L878.5 601C857 601 814 601 771.2 601C728.3 601 685.7 601 642.8 601C600 601 557 601 514.2 601C471.3 601 428.7 601 385.8 601C343 601 300 601 257.2 601C214.3 601 171.7 601 128.8 601C86 601 43 601 21.5 601L0 601Z" fill="#894cda"></path><path d="M0 469L21.5 462.2C43 455.3 86 441.7 128.8 436.5C171.7 431.3 214.3 434.7 257.2 440.3C300 446 343 454 385.8 455.3C428.7 456.7 471.3 451.3 514.2 445.5C557 439.7 600 433.3 642.8 434C685.7 434.7 728.3 442.3 771.2 447.2C814 452 857 454 878.5 455L900 456L900 601L878.5 601C857 601 814 601 771.2 601C728.3 601 685.7 601 642.8 601C600 601 557 601 514.2 601C471.3 601 428.7 601 385.8 601C343 601 300 601 257.2 601C214.3 601 171.7 601 128.8 601C86 601 43 601 21.5 601L0 601Z" fill="#5e388f"></path><path d="M0 504L21.5 505C43 506 86 508 128.8 506C171.7 504 214.3 498 257.2 496.7C300 495.3 343 498.7 385.8 501.5C428.7 504.3 471.3 506.7 514.2 508.3C557 510 600 511 642.8 507.5C685.7 504 728.3 496 771.2 495.2C814 494.3 857 500.7 878.5 503.8L900 507L900 601L878.5 601C857 601 814 601 771.2 601C728.3 601 685.7 601 642.8 601C600 601 557 601 514.2 601C471.3 601 428.7 601 385.8 601C343 601 300 601 257.2 601C214.3 601 171.7 601 128.8 601C86 601 43 601 21.5 601L0 601Z" fill="#36244b"></path><path d="M0 554L21.5 551.7C43 549.3 86 544.7 128.8 543.8C171.7 543 214.3 546 257.2 543.5C300 541 343 533 385.8 531.7C428.7 530.3 471.3 535.7 514.2 539.2C557 542.7 600 544.3 642.8 545.5C685.7 546.7 728.3 547.3 771.2 543.5C814 539.7 857 531.3 878.5 527.2L900 523L900 601L878.5 601C857 601 814 601 771.2 601C728.3 601 685.7 601 642.8 601C600 601 557 601 514.2 601C471.3 601 428.7 601 385.8 601C343 601 300 601 257.2 601C214.3 601 171.7 601 128.8 601C86 601 43 601 21.5 601L0 601Z" fill="#0e0e0e"></path></svg>