<svg id="visual" viewBox="0 0 540 960" width="540" height="960" xmlns="http://www.w3.org/2000/svg" xmlns:xlink="http://www.w3.org/1999/xlink" version="1.1"><path d="M134 0L131.3 22.8C128.7 45.7 123.3 91.3 121 137C118.7 182.7 119.3 228.3 120.2 274C121 319.7 122 365.3 122.3 411.2C122.7 457 122.3 503 119.8 548.8C117.3 594.7 112.7 640.3 112.3 686C112 731.7 116 777.3 114.8 823C113.7 868.7 107.3 914.3 104.2 937.2L101 960L0 960L0 937.2C0 914.3 0 868.7 0 823C0 777.3 0 731.7 0 686C0 640.3 0 594.7 0 548.8C0 503 0 457 0 411.2C0 365.3 0 319.7 0 274C0 228.3 0 182.7 0 137C0 91.3 0 45.7 0 22.8L0 0Z" fill="#894cda"></path><path d="M104 0L103.3 22.8C102.7 45.7 101.3 91.3 96 137C90.7 182.7 81.3 228.3 79 274C76.7 319.7 81.3 365.3 82.5 411.2C83.7 457 81.3 503 80.3 548.8C79.3 594.7 79.7 640.3 80.2 686C80.7 731.7 81.3 777.3 83 823C84.7 868.7 87.3 914.3 88.7 937.2L90 960L0 960L0 937.2C0 914.3 0 868.7 0 823C0 777.3 0 731.7 0 686C0 640.3 0 594.7 0 548.8C0 503 0 457 0 411.2C0 365.3 0 319.7 0 274C0 228.3 0 182.7 0 137C0 91.3 0 45.7 0 22.8L0 0Z" fill="#5e388f"></path><path d="M60 0L58.2 22.8C56.3 45.7 52.7 91.3 52.8 137C53 182.7 57 228.3 61.3 274C65.7 319.7 70.3 365.3 68.7 411.2C67 457 59 503 57.5 548.8C56 594.7 61 640.3 62.3 686C63.7 731.7 61.3 777.3 62.7 823C64 868.7 69 914.3 71.5 937.2L74 960L0 960L0 937.2C0 914.3 0 868.7 0 823C0 777.3 0 731.7 0 686C0 640.3 0 594.7 0 548.8C0 503 0 457 0 411.2C0 365.3 0 319.7 0 274C0 228.3 0 182.7 0 137C0 91.3 0 45.7 0 22.8L0 0Z" fill="#36244b"></path><path d="M43 0L39.5 22.8C36 45.7 29 91.3 29.3 137C29.7 182.7 37.3 228.3 40 274C42.7 319.7 40.3 365.3 38.2 411.2C36 457 34 503 32.8 548.8C31.7 594.7 31.3 640.3 33.3 686C35.3 731.7 39.7 777.3 40.3 823C41 868.7 38 914.3 36.5 937.2L35 960L0 960L0 937.2C0 914.3 0 868.7 0 823C0 777.3 0 731.7 0 686C0 640.3 0 594.7 0 548.8C0 503 0 457 0 411.2C0 365.3 0 319.7 0 274C0 228.3 0 182.7 0 137C0 91.3 0 45.7 0 22.8L0 0Z" fill="#0e0e0e"></path></svg>